<?xml version="1.0" encoding="UTF-8"?>
<svg width="112px" height="40px" viewBox="0 0 112 40" version="1.1" xmlns="http://www.w3.org/2000/svg" xmlns:xlink="http://www.w3.org/1999/xlink">
    <!-- Generator: Sketch 48.1 (47250) - http://www.bohemiancoding.com/sketch -->
    <title>SM - Logo</title>
    <desc>Created with Sketch.</desc>
    <defs></defs>
    <g id="Page-1" stroke="none" stroke-width="1" fill="none" fill-rule="evenodd">
        <g id="SM---Logo" fill="#FFFFFF">
            <g id="Group-4">
                <path d="M43.5,15.6211 C42.957,15.3981 42.545,15.1021 42.265,14.7341 C41.985,14.3671 41.837,13.9671 41.822,13.5351 C41.822,13.4641 41.848,13.4041 41.899,13.3551 C41.951,13.3081 42.014,13.2841 42.085,13.2841 L43.68,13.2841 C43.776,13.2841 43.854,13.3001 43.914,13.3321 C43.974,13.3641 44.04,13.4201 44.111,13.5001 C44.215,13.6911 44.377,13.8501 44.597,13.9741 C44.816,14.0981 45.11,14.1591 45.478,14.1591 C45.91,14.1591 46.241,14.0931 46.473,13.9611 C46.705,13.8291 46.82,13.6471 46.82,13.4161 C46.82,13.2481 46.761,13.1101 46.641,13.0021 C46.521,12.8941 46.329,12.7991 46.065,12.7151 C45.802,12.6311 45.422,12.5361 44.927,12.4331 C43.959,12.2411 43.236,11.9491 42.757,11.5581 C42.277,11.1661 42.038,10.6061 42.038,9.8801 C42.038,9.3841 42.175,8.9421 42.451,8.5551 C42.727,8.1671 43.118,7.8651 43.626,7.6491 C44.133,7.4331 44.723,7.3261 45.394,7.3261 C46.097,7.3261 46.707,7.4481 47.222,7.6911 C47.738,7.9351 48.133,8.2391 48.409,8.6021 C48.685,8.9661 48.831,9.3241 48.847,9.6761 C48.847,9.7471 48.823,9.8091 48.774,9.8611 C48.727,9.9131 48.667,9.9391 48.595,9.9391 L46.917,9.9391 C46.741,9.9391 46.605,9.8671 46.509,9.7241 C46.461,9.5561 46.337,9.4141 46.137,9.2981 C45.938,9.1831 45.69,9.1241 45.394,9.1241 C45.058,9.1241 44.799,9.1841 44.615,9.3041 C44.431,9.4241 44.339,9.6001 44.339,9.8311 C44.339,10.0631 44.459,10.2451 44.699,10.3771 C44.938,10.5091 45.386,10.6421 46.042,10.7781 C46.792,10.9141 47.39,11.0841 47.833,11.2881 C48.277,11.4921 48.605,11.7561 48.816,12.0791 C49.028,12.4021 49.134,12.8121 49.134,13.3081 C49.134,13.8511 48.979,14.3231 48.667,14.7231 C48.355,15.1221 47.923,15.4281 47.372,15.6401 C46.82,15.8511 46.189,15.9571 45.478,15.9571 C44.703,15.9571 44.043,15.8451 43.5,15.6211" id="Fill-1"></path>
                <path d="M57.3281,15.7539 C57.2681,15.6969 57.2381,15.6259 57.2381,15.5369 L57.2381,7.7579 C57.2381,7.6699 57.2681,7.5959 57.3281,7.5359 C57.3881,7.4759 57.4611,7.4449 57.5501,7.4449 L58.9041,7.4449 C59.1041,7.4449 59.2481,7.5339 59.3361,7.7089 L61.3981,11.4009 L63.4721,7.7089 C63.5591,7.5339 63.7031,7.4449 63.9031,7.4449 L65.2581,7.4449 C65.3461,7.4449 65.4201,7.4759 65.4801,7.5359 C65.5391,7.5959 65.5701,7.6699 65.5701,7.7579 L65.5701,15.5369 C65.5701,15.6259 65.5391,15.6969 65.4801,15.7539 C65.4201,15.8099 65.3461,15.8369 65.2581,15.8369 L63.7351,15.8369 C63.6561,15.8369 63.5851,15.8079 63.5261,15.7479 C63.4661,15.6879 63.4351,15.6169 63.4351,15.5369 L63.4351,11.1739 L62.1411,13.5479 C62.0371,13.7319 61.8971,13.8229 61.7221,13.8229 L61.0741,13.8229 C60.9141,13.8229 60.7741,13.7319 60.6551,13.5479 L59.3721,11.1739 L59.3721,15.5369 C59.3721,15.6259 59.3421,15.6969 59.2821,15.7539 C59.2221,15.8099 59.1481,15.8369 59.0601,15.8369 L57.5501,15.8369 C57.4611,15.8369 57.3881,15.8099 57.3281,15.7539" id="Fill-3"></path>
                <path d="M76.5864,12.6123 L78.7204,12.6123 L77.6534,9.5553 L76.5864,12.6123 Z M73.5114,15.7593 C73.4594,15.7083 73.4334,15.6493 73.4334,15.5863 C73.4334,15.5373 73.4374,15.5023 73.4454,15.4773 L76.2384,7.7933 C76.3184,7.5613 76.4784,7.4453 76.7184,7.4453 L78.5884,7.4453 C78.8284,7.4453 78.9884,7.5613 79.0684,7.7933 L81.8614,15.4773 C81.8694,15.5023 81.8734,15.5373 81.8734,15.5863 C81.8734,15.6493 81.8474,15.7083 81.7954,15.7593 C81.7434,15.8113 81.6854,15.8373 81.6214,15.8373 L80.0634,15.8373 C79.8714,15.8373 79.7354,15.7503 79.6554,15.5733 L79.2244,14.4113 L76.0834,14.4113 L75.6514,15.5733 C75.5714,15.7503 75.4354,15.8373 75.2434,15.8373 L73.6854,15.8373 C73.6214,15.8373 73.5634,15.8113 73.5114,15.7593 Z" id="Fill-5"></path>
                <path d="M93.3218,11.1504 C93.6648,11.1504 93.9268,11.0644 94.1068,10.8924 C94.2868,10.7204 94.3768,10.4824 94.3768,10.1784 C94.3768,9.8754 94.2868,9.6314 94.1068,9.4474 C93.9268,9.2634 93.6648,9.1714 93.3218,9.1714 L91.9908,9.1714 L91.9908,11.1504 L93.3218,11.1504 Z M89.8268,15.7484 C89.7678,15.6874 89.7378,15.6174 89.7378,15.5374 L89.7378,7.7574 C89.7378,7.6704 89.7658,7.5954 89.8218,7.5364 C89.8768,7.4754 89.9488,7.4454 90.0368,7.4454 L93.3338,7.4454 C94.3888,7.4454 95.2138,7.6854 95.8088,8.1654 C96.4048,8.6444 96.7028,9.3204 96.7028,10.1914 C96.7028,10.7514 96.5718,11.2254 96.3128,11.6174 C96.0528,12.0084 95.6958,12.3124 95.2398,12.5284 L96.8588,15.4534 C96.8828,15.5024 96.8948,15.5464 96.8948,15.5864 C96.8948,15.6494 96.8698,15.7084 96.8218,15.7594 C96.7748,15.8114 96.7148,15.8374 96.6428,15.8374 L94.9518,15.8374 C94.7208,15.8374 94.5568,15.7294 94.4608,15.5134 L93.1418,12.9124 L91.9908,12.9124 L91.9908,15.5374 C91.9908,15.6264 91.9618,15.6974 91.9018,15.7544 C91.8418,15.8094 91.7678,15.8374 91.6798,15.8374 L90.0368,15.8374 C89.9568,15.8374 89.8868,15.8074 89.8268,15.7484 Z" id="Fill-7"></path>
                <path d="M106.874,15.7539 C106.814,15.6969 106.784,15.6259 106.784,15.5369 L106.784,9.3999 L104.674,9.3999 C104.586,9.3999 104.512,9.3719 104.453,9.3159 C104.393,9.2599 104.362,9.1889 104.362,9.0999 L104.362,7.7579 C104.362,7.6699 104.393,7.5959 104.453,7.5359 C104.512,7.4759 104.586,7.4449 104.674,7.4449 L111.184,7.4449 C111.271,7.4449 111.346,7.4759 111.406,7.5359 C111.465,7.5959 111.495,7.6699 111.495,7.7579 L111.495,9.0999 C111.495,9.1889 111.465,9.2599 111.406,9.3159 C111.346,9.3719 111.271,9.3999 111.184,9.3999 L109.074,9.3999 L109.074,15.5369 C109.074,15.6259 109.044,15.6969 108.984,15.7539 C108.924,15.8099 108.85,15.8369 108.762,15.8369 L107.096,15.8369 C107.008,15.8369 106.934,15.8099 106.874,15.7539" id="Fill-9"></path>
                <path d="M42.3853,31.7373 C42.3293,31.6813 42.3013,31.6093 42.3013,31.5213 L42.3013,23.7413 C42.3013,23.6533 42.3293,23.5793 42.3853,23.5193 C42.4413,23.4603 42.5133,23.4293 42.6003,23.4293 L44.2433,23.4293 C44.3313,23.4293 44.4053,23.4603 44.4653,23.5193 C44.5253,23.5793 44.5543,23.6533 44.5543,23.7413 L44.5543,26.5823 L47.3843,26.5823 L47.3843,23.7413 C47.3843,23.6533 47.4143,23.5793 47.4743,23.5193 C47.5343,23.4603 47.6083,23.4293 47.6963,23.4293 L49.3263,23.4293 C49.4143,23.4293 49.4883,23.4603 49.5483,23.5193 C49.6083,23.5793 49.6383,23.6533 49.6383,23.7413 L49.6383,31.5213 C49.6383,31.6093 49.6083,31.6813 49.5483,31.7373 C49.4883,31.7933 49.4143,31.8213 49.3263,31.8213 L47.6963,31.8213 C47.6083,31.8213 47.5343,31.7933 47.4743,31.7373 C47.4143,31.6813 47.3843,31.6093 47.3843,31.5213 L47.3843,28.5853 L44.5543,28.5853 L44.5543,31.5213 C44.5543,31.6093 44.5253,31.6813 44.4653,31.7373 C44.4053,31.7933 44.3313,31.8213 44.2433,31.8213 L42.6003,31.8213 C42.5133,31.8213 42.4413,31.7933 42.3853,31.7373" id="Fill-11"></path>
                <path d="M62.6929,29.7656 C62.9399,29.5136 63.0719,29.1276 63.0889,28.6086 C63.1039,28.1446 63.1119,27.8136 63.1119,27.6136 C63.1119,27.4136 63.1039,27.0896 63.0889,26.6426 C63.0719,26.1226 62.9399,25.7376 62.6929,25.4856 C62.4449,25.2336 62.1129,25.1086 61.6979,25.1086 C61.2739,25.1086 60.9379,25.2336 60.6909,25.4856 C60.4429,25.7376 60.3109,26.1226 60.2949,26.6426 C60.2869,26.8666 60.2829,27.1896 60.2829,27.6136 C60.2829,28.0446 60.2869,28.3766 60.2949,28.6086 C60.3109,29.1276 60.4429,29.5136 60.6909,29.7656 C60.9379,30.0176 61.2739,30.1426 61.6979,30.1426 C62.1129,30.1426 62.4449,30.0176 62.6929,29.7656 M59.0119,31.1146 C58.3569,30.5626 58.0089,29.7516 57.9699,28.6806 C57.9619,28.4566 57.9579,28.1136 57.9579,27.6496 C57.9579,27.1856 57.9619,26.8376 57.9699,26.6066 C58.0019,25.5516 58.3509,24.7386 59.0179,24.1666 C59.6859,23.5956 60.5789,23.3096 61.6979,23.3096 C62.8089,23.3096 63.6969,23.5956 64.3649,24.1666 C65.0319,24.7386 65.3819,25.5516 65.4139,26.6066 C65.4299,27.0706 65.4379,27.4176 65.4379,27.6496 C65.4379,27.8896 65.4299,28.2336 65.4139,28.6806 C65.3739,29.7516 65.0279,30.5626 64.3769,31.1146 C63.7259,31.6656 62.8329,31.9416 61.6979,31.9416 C60.5629,31.9416 59.6679,31.6656 59.0119,31.1146" id="Fill-13"></path>
                <path d="M74.9443,31.6055 C74.4013,31.3815 73.9893,31.0855 73.7093,30.7185 C73.4303,30.3505 73.2813,29.9515 73.2663,29.5195 C73.2663,29.4475 73.2923,29.3875 73.3443,29.3395 C73.3963,29.2925 73.4583,29.2675 73.5293,29.2675 L75.1243,29.2675 C75.2203,29.2675 75.2983,29.2845 75.3583,29.3155 C75.4183,29.3475 75.4843,29.4045 75.5553,29.4835 C75.6593,29.6755 75.8213,29.8335 76.0413,29.9575 C76.2613,30.0815 76.5543,30.1425 76.9223,30.1425 C77.3543,30.1425 77.6853,30.0775 77.9173,29.9455 C78.1493,29.8135 78.2653,29.6315 78.2653,29.3995 C78.2653,29.2315 78.2053,29.0935 78.0853,28.9865 C77.9653,28.8775 77.7733,28.7825 77.5093,28.6985 C77.2463,28.6145 76.8663,28.5205 76.3713,28.4175 C75.4033,28.2245 74.6803,27.9335 74.2013,27.5425 C73.7213,27.1505 73.4823,26.5905 73.4823,25.8635 C73.4823,25.3685 73.6193,24.9255 73.8953,24.5395 C74.1713,24.1515 74.5623,23.8495 75.0703,23.6335 C75.5773,23.4175 76.1673,23.3095 76.8393,23.3095 C77.5413,23.3095 78.1513,23.4315 78.6663,23.6755 C79.1823,23.9185 79.5773,24.2235 79.8533,24.5865 C80.1293,24.9505 80.2753,25.3075 80.2913,25.6595 C80.2913,25.7315 80.2673,25.7935 80.2193,25.8455 C80.1713,25.8975 80.1113,25.9225 80.0393,25.9225 L78.3613,25.9225 C78.1853,25.9225 78.0493,25.8515 77.9533,25.7075 C77.9053,25.5395 77.7813,25.3975 77.5813,25.2825 C77.3823,25.1665 77.1343,25.1085 76.8393,25.1085 C76.5033,25.1085 76.2433,25.1685 76.0593,25.2885 C75.8753,25.4085 75.7833,25.5845 75.7833,25.8155 C75.7833,26.0465 75.9033,26.2285 76.1433,26.3605 C76.3823,26.4935 76.8303,26.6265 77.4863,26.7625 C78.2363,26.8985 78.8343,27.0685 79.2773,27.2715 C79.7213,27.4755 80.0493,27.7395 80.2613,28.0635 C80.4723,28.3865 80.5783,28.7955 80.5783,29.2925 C80.5783,29.8345 80.4233,30.3065 80.1113,30.7075 C79.7993,31.1065 79.3683,31.4125 78.8163,31.6245 C78.2653,31.8345 77.6333,31.9415 76.9223,31.9415 C76.1473,31.9415 75.4873,31.8295 74.9443,31.6055" id="Fill-15"></path>
                <path d="M90.5347,31.7373 C90.4747,31.6813 90.4447,31.6093 90.4447,31.5213 L90.4447,25.3833 L88.3347,25.3833 C88.2467,25.3833 88.1727,25.3553 88.1137,25.3003 C88.0537,25.2443 88.0227,25.1723 88.0227,25.0843 L88.0227,23.7413 C88.0227,23.6533 88.0537,23.5793 88.1137,23.5193 C88.1727,23.4603 88.2467,23.4293 88.3347,23.4293 L94.8447,23.4293 C94.9317,23.4293 95.0067,23.4603 95.0657,23.5193 C95.1257,23.5793 95.1557,23.6533 95.1557,23.7413 L95.1557,25.0843 C95.1557,25.1723 95.1257,25.2443 95.0657,25.3003 C95.0067,25.3553 94.9317,25.3833 94.8447,25.3833 L92.7347,25.3833 L92.7347,31.5213 C92.7347,31.6093 92.7047,31.6813 92.6447,31.7373 C92.5847,31.7933 92.5107,31.8213 92.4227,31.8213 L90.7567,31.8213 C90.6687,31.8213 90.5947,31.7933 90.5347,31.7373" id="Fill-17"></path>
                <path d="M27.833,39.2939 C27.649,39.2939 27.5,39.1459 27.5,38.9609 L27.5,0.3329 C27.5,0.1489 27.649,-0.000100000005 27.833,-0.000100000005 C28.017,-0.000100000005 28.166,0.1489 28.166,0.3329 L28.166,38.9609 C28.166,39.1459 28.017,39.2939 27.833,39.2939" id="Fill-19"></path>
                <path d="M6.5,32 C6.224,32 6,31.776 6,31.5 L6,13.5 C6,13.224 6.224,13 6.5,13 C6.776,13 7,13.224 7,13.5 L7,31.5 C7,31.776 6.776,32 6.5,32" id="Fill-22"></path>
                <path d="M9.5,12 C8.122,12 7,13.121 7,14.5 C7,15.879 8.122,17 9.5,17 C10.878,17 12,15.879 12,14.5 C12,13.121 10.878,12 9.5,12 M9.5,18 C7.57,18 6,16.43 6,14.5 C6,12.57 7.57,11 9.5,11 C11.43,11 13,12.57 13,14.5 C13,16.43 11.43,18 9.5,18" id="Fill-24"></path>
                <path d="M6.5,6.79999924 C5.122,6.79999924 4,7.92099924 4,9.29999924 C4,10.6789992 5.122,11.7999992 6.5,11.7999992 C7.878,11.7999992 9,10.6789992 9,9.29999924 C9,7.92099924 7.878,6.79999924 6.5,6.79999924 M6.5,12.7999992 C4.57,12.7999992 3,11.2299992 3,9.29999924 C3,7.36999924 4.57,5.79999924 6.5,5.79999924 C8.43,5.79999924 10,7.36999924 10,9.29999924 C10,11.2299992 8.43,12.7999992 6.5,12.7999992" id="Fill-26"></path>
                <path d="M3.5,12 C2.122,12 1,13.121 1,14.5 C1,15.879 2.122,17 3.5,17 C4.878,17 6,15.879 6,14.5 C6,13.121 4.878,12 3.5,12 M3.5,18 C1.57,18 0,16.43 0,14.5 C0,12.57 1.57,11 3.5,11 C5.43,11 7,12.57 7,14.5 C7,16.43 5.43,18 3.5,18" id="Fill-28"></path>
                <path d="M10,27 L8,27 L8,28 L10,28 C10.276,28 10.5,27.776 10.5,27.5 C10.5,27.224 10.276,27 10,27" id="Fill-30"></path>
                <path d="M9,30 C9.276,30 9.5,29.776 9.5,29.5 C9.5,29.224 9.276,29 9,29 L8,29 L8,30 L9,30 Z" id="Fill-32"></path>
            </g>
        </g>
    </g>
</svg>